<svg width="80" height="96" viewBox="0 0 80 96" fill="none" xmlns="http://www.w3.org/2000/svg">
<path d="M24.8832 29.4398L2.92874 42.5216C1.1126 43.6037 0 45.5618 0 47.6759V71.2325C0 72.7844 1.69061 73.745 3.02375 72.9507L26.3951 59.0247C27.0617 58.6275 27.907 59.1078 27.907 59.8837V85.8381L53.0027 94.9763C54.7729 95.6209 56.7431 95.3967 58.3232 94.3707L76.5532 82.5333C77.9521 81.625 77.69 79.5042 76.112 78.9638L53.0233 71.0571L76.5375 57.7132C78.1027 56.825 79.0698 55.1642 79.0698 53.3646V2.43456C79.0698 0.901562 77.4159 -0.0614847 76.0827 0.695128L57.0749 11.4817C54.5706 12.9029 53.0233 15.5601 53.0233 18.4395V38.0643C53.0233 40.1901 51.8984 42.1572 50.0664 43.2354L30.9214 54.5022C29.5881 55.2868 27.907 54.3256 27.907 52.7786V31.1579C27.907 29.6061 26.2164 28.6455 24.8832 29.4398Z" fill="url(#paint0_linear_1_45)"/>
<defs>
<linearGradient id="paint0_linear_1_45" x1="13.0233" y1="11.9333" x2="79.455" y2="91.8341" gradientUnits="userSpaceOnUse">
<stop stop-color="#119FA4"/>
<stop offset="1" stop-color="#205F9B"/>
</linearGradient>
</defs>
</svg>
