<svg width="43" height="53" viewBox="0 0 43 53" fill="none" xmlns="http://www.w3.org/2000/svg">
<path d="M13.4855 16.4087L1.45651 23.6261C0.552896 24.1683 0 25.1448 0 26.1986V39.2338C0 40.0111 0.847972 40.4912 1.5145 40.0913L13.4855 32.9087C14.152 32.5088 15 32.9889 15 33.7662V47L29.0573 52.1544C29.6505 52.3719 30.3116 52.2963 30.8403 51.9505L41.2917 45.117C41.9876 44.6619 41.8565 43.6057 41.0704 43.3346L28.5 39L41.4923 31.5758C42.1154 31.2198 42.5 30.5571 42.5 29.8394V1.72318C42.5 0.955357 41.6705 0.473989 41.0039 0.854936L30.0116 7.13624C29.0769 7.67037 28.5 8.6644 28.5 9.74097V21.2906C28.5 22.3502 27.941 23.3313 27.0294 23.8715L16.5098 30.1053C15.8432 30.5003 15 30.0199 15 29.245V17.2662C15 16.4889 14.152 16.0088 13.4855 16.4087Z" fill="url(#paint0_linear_1_39)"/>
<defs>
<linearGradient id="paint0_linear_1_39" x1="7" y1="7" x2="43" y2="50" gradientUnits="userSpaceOnUse">
<stop stop-color="white"/>
<stop offset="1" stop-color="#E9E9E9"/>
</linearGradient>
</defs>
</svg>
